<svg width="20" height="20" viewBox="0 0 20 20" fill="none" xmlns="http://www.w3.org/2000/svg">   
        <mask style="mask-type:alpha" maskUnits="userSpaceOnUse" x="0" y="0" width="20" height="20">
          <rect width="20" height="20" fill="white"></rect>
        </mask>            
        <path mask="url(#mask0_1443_3935)" d="M9.99987 12.208C9.90254 12.208 9.80521 12.1906 9.70787 12.156C9.61054 12.1213 9.52054 12.0553 9.43787 11.958L5.74987 8.29198C5.62454 8.15265 5.56554 7.98931 5.57287 7.80198C5.57954 7.61465 5.64554 7.45831 5.77087 7.33298C5.92354 7.19431 6.08321 7.12831 6.24987 7.13498C6.41654 7.14231 6.56921 7.20831 6.70787 7.33298L9.99987 10.646L13.3119 7.35398C13.4372 7.21531 13.5832 7.14598 13.7499 7.14598C13.9165 7.14598 14.0762 7.21531 14.2289 7.35398C14.3682 7.49265 14.4379 7.65231 14.4379 7.83298C14.4379 8.01365 14.3682 8.16665 14.2289 8.29198L10.5619 11.958C10.4792 12.0553 10.3892 12.1213 10.2919 12.156C10.1945 12.1906 10.0972 12.208 9.99987 12.208Z" fill="#3A474E"></path> 
      </svg>