<svg width="20" height="20" viewBox="0 0 20 20" fill="none" xmlns="http://www.w3.org/2000/svg">
<g id="Icon">
<path id="icon" d="M5.8335 18.3334C5.37516 18.3334 4.9828 18.1702 4.65641 17.8438C4.33002 17.5174 4.16683 17.125 4.16683 16.6667C4.16683 16.2084 4.33002 15.816 4.65641 15.4896C4.9828 15.1632 5.37516 15 5.8335 15C6.29183 15 6.68419 15.1632 7.01058 15.4896C7.33697 15.816 7.50016 16.2084 7.50016 16.6667C7.50016 17.125 7.33697 17.5174 7.01058 17.8438C6.68419 18.1702 6.29183 18.3334 5.8335 18.3334ZM14.1668 18.3334C13.7085 18.3334 13.3161 18.1702 12.9897 17.8438C12.6634 17.5174 12.5002 17.125 12.5002 16.6667C12.5002 16.2084 12.6634 15.816 12.9897 15.4896C13.3161 15.1632 13.7085 15 14.1668 15C14.6252 15 15.0175 15.1632 15.3439 15.4896C15.6703 15.816 15.8335 16.2084 15.8335 16.6667C15.8335 17.125 15.6703 17.5174 15.3439 17.8438C15.0175 18.1702 14.6252 18.3334 14.1668 18.3334ZM5.12516 5.00002L7.12516 9.16669H12.9585L15.2502 5.00002H5.12516ZM5.8335 14.1667C5.2085 14.1667 4.73627 13.8924 4.41683 13.3438C4.09738 12.7952 4.0835 12.25 4.37516 11.7084L5.50016 9.66669L2.50016 3.33335H1.646C1.40988 3.33335 1.21544 3.25349 1.06266 3.09377C0.909885 2.93405 0.833496 2.73613 0.833496 2.50002C0.833496 2.26391 0.913357 2.06599 1.07308 1.90627C1.2328 1.74655 1.43072 1.66669 1.66683 1.66669H3.021C3.17377 1.66669 3.31961 1.70835 3.4585 1.79169C3.59738 1.87502 3.70155 1.99308 3.771 2.14585L4.3335 3.33335H16.6252C17.0002 3.33335 17.2571 3.47224 17.396 3.75002C17.5349 4.0278 17.5279 4.31947 17.3752 4.62502L14.4168 9.95835C14.2641 10.2361 14.0627 10.4514 13.8127 10.6042C13.5627 10.757 13.2779 10.8334 12.9585 10.8334H6.75016L5.8335 12.5H15.021C15.2571 12.5 15.4516 12.5799 15.6043 12.7396C15.7571 12.8993 15.8335 13.0972 15.8335 13.3334C15.8335 13.5695 15.7536 13.7674 15.5939 13.9271C15.4342 14.0868 15.2363 14.1667 15.0002 14.1667H5.8335Z" fill="#3A474E"/>
</g>
</svg>
