<svg width="21" height="20" viewBox="0 0 21 20" fill="none" xmlns="http://www.w3.org/2000/svg">
            <path d="M10.5002 11.1667L6.41683 15.25C6.26405 15.4028 6.06961 15.4792 5.8335 15.4792C5.59739 15.4792 5.40294 15.4028 5.25016 15.25C5.09738 15.0973 5.021 14.9028 5.021 14.6667C5.021 14.4306 5.09738 14.2362 5.25016 14.0834L9.3335 10L5.25016 5.91671C5.09738 5.76393 5.021 5.56949 5.021 5.33337C5.021 5.09726 5.09738 4.90282 5.25016 4.75004C5.40294 4.59726 5.59739 4.52087 5.8335 4.52087C6.06961 4.52087 6.26405 4.59726 6.41683 4.75004L10.5002 8.83337L14.5835 4.75004C14.7363 4.59726 14.9307 4.52087 15.1668 4.52087C15.4029 4.52087 15.5974 4.59726 15.7502 4.75004C15.9029 4.90282 15.9793 5.09726 15.9793 5.33337C15.9793 5.56949 15.9029 5.76393 15.7502 5.91671L11.6668 10L15.7502 14.0834C15.9029 14.2362 15.9793 14.4306 15.9793 14.6667C15.9793 14.9028 15.9029 15.0973 15.7502 15.25C15.5974 15.4028 15.4029 15.4792 15.1668 15.4792C14.9307 15.4792 14.7363 15.4028 14.5835 15.25L10.5002 11.1667Z" fill="#3A474E"></path>
          </svg>