<svg width="64" height="64" viewBox="0 0 64 64" fill="none" xmlns="http://www.w3.org/2000/svg">
<g clip-path="url(#clip0_296_5085)">
<path d="M60.8585 10.0268C60.6591 9.72715 60.4292 9.44918 60.1725 9.19739L52.5586 1.65094C51.4918 0.589631 50.0507 -0.00391355 48.5501 -1.13983e-05H33.4664C31.9646 -0.00362223 30.5225 0.590899 29.4553 1.65357L26.7035 4.38146C19.3875 5.14419 12.6115 8.60462 7.68277 14.0952C2.75405 19.5858 0.0218032 26.7174 0.0131226 34.1144C0.0207384 42.0364 3.15212 49.632 8.72051 55.2355C14.2889 60.8389 21.8398 63.9927 29.7171 64.0053C35.4719 63.9997 41.1017 62.316 45.9244 59.1582C50.7472 56.0004 54.5559 51.5039 56.8892 46.2135C57.9156 45.9672 58.8296 45.3805 59.4837 44.5478C60.1378 43.7151 60.4939 42.6851 60.4945 41.624V20.4196C60.4957 19.7765 60.3647 19.14 60.1097 18.5501C61.1933 17.4181 61.8531 15.9432 61.9765 14.3767C62.101 12.8415 61.7071 11.309 60.8585 10.0268ZM56.829 41.624C56.8293 41.7597 56.803 41.8942 56.7516 42.0198C56.7002 42.1453 56.6247 42.2594 56.5293 42.3555C56.434 42.4516 56.3207 42.5279 56.196 42.58C56.0713 42.632 55.9376 42.6588 55.8026 42.6588H29.882C29.828 42.6592 29.7745 42.6477 29.7254 42.625C29.6763 42.6024 29.6327 42.5692 29.5978 42.5277C29.5628 42.4863 29.5373 42.4376 29.5231 42.3852C29.5089 42.3328 29.5063 42.2779 29.5155 42.2243C29.9937 39.354 31.1088 36.6289 32.7778 34.2513C37.9436 26.9945 46.953 25.5805 47.0472 25.5621C47.2631 25.5307 47.4591 25.4181 47.5956 25.2471C47.7322 25.076 47.7991 24.8592 47.783 24.6405C47.7671 24.4212 47.6691 24.2161 47.5087 24.0665C47.3484 23.917 47.1376 23.8342 46.9189 23.8348C40.3393 23.8348 34.3514 26.273 30.0732 30.7019C27.9328 32.9205 26.3096 35.5899 25.3211 38.5169C25.3165 38.534 25.3057 38.5488 25.2909 38.5583C25.2761 38.5679 25.2583 38.5715 25.241 38.5685C25.2236 38.5656 25.208 38.5562 25.1971 38.5423C25.1863 38.5284 25.181 38.5109 25.1823 38.4932V28.6928C25.183 26.2247 26.1584 23.8578 27.8941 22.1128C29.6298 20.3678 31.9835 19.3875 34.4378 19.3875H55.8053C55.9401 19.3871 56.0738 19.4136 56.1984 19.4653C56.3231 19.5171 56.4364 19.5931 56.5318 19.689C56.6272 19.7849 56.7027 19.8989 56.7542 20.0242C56.8056 20.1496 56.832 20.284 56.8316 20.4196L56.829 41.624ZM58.3214 14.0923C58.2498 14.8461 57.919 15.5511 57.3862 16.086C56.8533 16.6209 56.1517 16.9523 55.4021 17.023C55.3157 17.023 55.2266 17.0361 55.1402 17.0361C54.5544 17.0353 53.9801 16.8722 53.4803 16.5647C52.9806 16.2572 52.5747 15.8172 52.3073 15.293C52.038 15.8149 51.6314 16.2524 51.1319 16.5579C50.6323 16.8634 50.059 17.0252 49.4744 17.0256C48.8896 17.0258 48.316 16.8642 47.8164 16.5587C47.3167 16.2531 46.9103 15.8153 46.6414 15.293C46.3721 15.8149 45.9655 16.2524 45.466 16.5579C44.9665 16.8634 44.3931 17.0252 43.8085 17.0256C43.2353 17.0253 42.6728 16.8699 42.1798 16.5757C41.6869 16.2816 41.2818 15.8594 41.007 15.3536C40.7328 15.8594 40.3281 16.2816 39.8356 16.5758C39.3431 16.87 38.7809 17.0254 38.2081 17.0256C37.6233 17.0258 37.0497 16.8642 36.5501 16.5587C36.0504 16.2531 35.644 15.8153 35.3751 15.293C35.106 15.8151 34.6995 16.2527 34.1999 16.5583C33.7003 16.8638 33.1269 17.0255 32.5422 17.0256C31.9574 17.0258 31.3838 16.8642 30.8842 16.5587C30.3846 16.2531 29.9781 15.8153 29.7092 15.293C29.4399 15.8149 29.0333 16.2524 28.5338 16.5579C28.0343 16.8634 27.4609 17.0252 26.8763 17.0256C26.803 17.0256 26.7323 17.0256 26.6616 17.0256H26.7113H26.6092H26.6616C25.9024 16.966 25.1884 16.6393 24.6449 16.1029C24.1014 15.5664 23.7633 14.8546 23.6899 14.0923C23.6336 13.3782 23.8181 12.6659 24.2135 12.0701C24.2731 11.9746 24.3434 11.8862 24.423 11.8068L32.0316 4.26824C32.4149 3.88877 32.9312 3.67599 33.469 3.67579H48.5527C49.0898 3.67612 49.6052 3.88893 49.9875 4.26824L57.5988 11.8068C57.6776 11.8863 57.747 11.9746 57.8056 12.0701C58.2007 12.6649 58.3835 13.3769 58.324 14.0897L58.3214 14.0923Z" fill="white"/>
<path d="M48.5004 46.3978C46.4712 49.5518 43.6895 52.1452 40.4088 53.9416C37.1281 55.738 33.4526 56.6803 29.7171 56.6826C23.7821 56.6757 18.0921 54.3015 13.8955 50.081C9.69877 45.8605 7.33803 40.1383 7.3311 34.1697C7.33754 29.9329 8.53099 25.7837 10.7746 22.1977C13.0183 18.6117 16.2213 15.7341 20.0165 13.8948C20.0124 12.5431 20.41 11.2209 21.158 10.0979C21.3578 9.79535 21.5886 9.5147 21.8466 9.26058L21.9304 9.17896C16.6373 10.8544 12.0129 14.1828 8.72848 18.6809C5.44407 23.179 3.67062 28.6128 3.66556 34.1934C3.67387 41.1393 6.42125 47.7983 11.3051 52.7098C16.1889 57.6213 22.8103 60.3843 29.7171 60.3926C34.4576 60.3899 39.1076 59.0877 43.1673 56.626C47.2269 54.1643 50.5425 50.6364 52.7576 46.4214L48.5004 46.3978Z" fill="#B39ACF"/>
<path d="M57.803 12.0675C57.7443 11.972 57.6749 11.8836 57.5961 11.8042L49.9849 4.2656C49.6025 3.88629 49.0872 3.67349 48.5501 3.67316H33.4664C32.9285 3.67336 32.4123 3.88614 32.029 4.2656L24.4204 11.8042C24.3407 11.8836 24.2705 11.9719 24.2109 12.0675C23.8154 12.6632 23.631 13.3756 23.6872 14.0897C23.7619 14.8623 24.1083 15.5828 24.6641 16.1215C25.2199 16.6602 25.9487 16.9817 26.7192 17.0282H26.6171C26.7061 17.0282 26.7925 17.0414 26.8789 17.0414C27.4647 17.039 28.0386 16.8746 28.5378 16.5663C29.037 16.2579 29.4422 15.8174 29.7092 15.293C29.9781 15.8152 30.3845 16.2531 30.8842 16.5587C31.3838 16.8642 31.9574 17.0258 32.5421 17.0256C33.1269 17.0255 33.7003 16.8638 34.1999 16.5583C34.6995 16.2527 35.106 15.8151 35.3751 15.293C35.6439 15.8152 36.0504 16.2531 36.5501 16.5587C37.0497 16.8642 37.6233 17.0258 38.208 17.0256C38.7809 17.0254 39.3431 16.87 39.8356 16.5758C40.3281 16.2816 40.7327 15.8594 41.0069 15.3536C41.2818 15.8594 41.6869 16.2815 42.1798 16.5757C42.6727 16.8699 43.2353 17.0253 43.8084 17.0256C44.3931 17.0252 44.9664 16.8634 45.466 16.5579C45.9655 16.2524 46.3721 15.8149 46.6414 15.293C46.9102 15.8152 47.3167 16.2531 47.8164 16.5587C48.316 16.8642 48.8896 17.0258 49.4743 17.0256C50.059 17.0252 50.6323 16.8634 51.1318 16.5579C51.6314 16.2524 52.0379 15.8149 52.3073 15.293C52.5761 15.8152 52.9826 16.2531 53.4822 16.5587C53.9819 16.8642 54.5554 17.0258 55.1402 17.0256C55.2292 17.0256 55.3182 17.0256 55.402 17.0124C56.1516 16.9417 56.8533 16.6104 57.3862 16.0755C57.919 15.5405 58.2497 14.8355 58.3214 14.0818C58.3797 13.3707 58.1969 12.6608 57.803 12.0675Z" fill="#FD6400"/>
<path d="M56.829 20.4197V41.624C56.8293 41.7597 56.803 41.8942 56.7516 42.0198C56.7002 42.1453 56.6246 42.2594 56.5293 42.3555C56.4339 42.4517 56.3207 42.5279 56.196 42.58C56.0713 42.632 55.9376 42.6588 55.8026 42.6588H29.882C29.828 42.6592 29.7745 42.6477 29.7254 42.625C29.6763 42.6024 29.6327 42.5692 29.5977 42.5277C29.5628 42.4863 29.5373 42.4376 29.5231 42.3852C29.5089 42.3328 29.5062 42.2779 29.5154 42.2243C29.9937 39.354 31.1088 36.6289 32.7778 34.2513C37.9436 26.9945 46.9529 25.5805 47.0472 25.5621C47.2631 25.5307 47.4591 25.4181 47.5956 25.2471C47.7321 25.076 47.7991 24.8593 47.7829 24.6405C47.767 24.4212 47.669 24.2161 47.5087 24.0665C47.3483 23.917 47.1376 23.8342 46.9189 23.8348C40.3393 23.8348 34.3513 26.273 30.0731 30.7019C27.9327 32.9205 26.3095 35.5899 25.321 38.5169C25.3165 38.534 25.3057 38.5488 25.2909 38.5583C25.2761 38.5679 25.2583 38.5715 25.2409 38.5685C25.2236 38.5656 25.208 38.5562 25.1971 38.5423C25.1863 38.5284 25.181 38.5109 25.1823 38.4932V28.6928C25.183 26.2247 26.1584 23.8578 27.8941 22.1128C29.6297 20.3678 31.9835 19.3875 34.4377 19.3875H55.8052C55.9399 19.3875 56.0732 19.4142 56.1976 19.4661C56.322 19.518 56.4349 19.5941 56.53 19.69C56.6251 19.7858 56.7005 19.8996 56.7518 20.0249C56.8031 20.1501 56.8293 20.2842 56.829 20.4197Z" fill="#FD6400"/>
</g>
<defs>
<clipPath id="clip0_296_5085">
<rect width="62" height="64" fill="white"/>
</clipPath>
</defs>
</svg>
