<svg width="24" height="24" viewBox="0 0 24 24" fill="none" xmlns="http://www.w3.org/2000/svg">
        <path id="icon" d="M12 12.0005C10.9 12.0005 9.95833 11.6088 9.175 10.8255C8.39167 10.0422 8 9.10049 8 8.00049C8 6.90049 8.39167 5.95882 9.175 5.17549C9.95833 4.39215 10.9 4.00049 12 4.00049C13.1 4.00049 14.0417 4.39215 14.825 5.17549C15.6083 5.95882 16 6.90049 16 8.00049C16 9.10049 15.6083 10.0422 14.825 10.8255C14.0417 11.6088 13.1 12.0005 12 12.0005ZM6 20.0005C5.45 20.0005 4.97917 19.8047 4.5875 19.413C4.19583 19.0213 4 18.5505 4 18.0005V17.2005C4 16.6338 4.14583 16.113 4.4375 15.638C4.72917 15.163 5.11667 14.8005 5.6 14.5505C6.63333 14.0338 7.68333 13.6463 8.75 13.388C9.81667 13.1297 10.9 13.0005 12 13.0005C13.1 13.0005 14.1833 13.1297 15.25 13.388C16.3167 13.6463 17.3667 14.0338 18.4 14.5505C18.8833 14.8005 19.2708 15.163 19.5625 15.638C19.8542 16.113 20 16.6338 20 17.2005V18.0005C20 18.5505 19.8042 19.0213 19.4125 19.413C19.0208 19.8047 18.55 20.0005 18 20.0005H6Z" fill="#3A474E"></path>
      </svg>